<svg width="230px" height="151px" viewBox="0 0 230 151" version="1.1" xmlns="http://www.w3.org/2000/svg" xmlns:xlink="http://www.w3.org/1999/xlink">
    <g id="Page-1" stroke="none" stroke-width="1" fill="none" fill-rule="evenodd">
        <g id="Large-Copy" transform="translate(-1167, -2609)">
            <g id="Intelligent-Popups" transform="translate(1167, 2609)">
                <rect id="Rectangle-Copy-30" fill="#242415" x="0" y="0" width="230" height="151" rx="3"></rect>
                <rect id="Rectangle-Copy-32" fill="#F0F0F3" x="5" y="16" width="219" height="129" rx="2"></rect>
                <circle id="Oval-Copy-9" fill="#E6E6E6" cx="13" cy="9" r="3"></circle>
                <circle id="Oval-Copy-10" fill="#E6E6E6" cx="24" cy="9" r="3"></circle>
                <circle id="Oval-Copy-11" fill="#E6E6E6" cx="35" cy="9" r="3"></circle>
                <rect id="Rectangle" fill="#FDFDFD" x="6" y="16" width="219" height="129" rx="2"></rect>
                <rect id="Rectangle" fill="#DBDBE7" x="18" y="26" width="65" height="18"></rect>
                <rect id="Rectangle-Copy" fill="#DBDBE7" x="18" y="50" width="194" height="42"></rect>
                <rect id="Rectangle-Copy-3" fill="#DBDBE7" x="63" y="98" width="108" height="10"></rect>
                <rect id="Rectangle-Copy-5" fill="#DBDBE7" x="63" y="111" width="108" height="10"></rect>
                <rect id="Rectangle-Copy-6" fill="#DBDBE7" x="107" y="124" width="27" height="10"></rect>
                <g id="Group-2" transform="translate(64, 50)">
                    <rect id="Rectangle" fill="#2680B7" x="0" y="0" width="106" height="53" rx="3"></rect>
                    <rect id="Rectangle" fill="#FFFFFF" x="5" y="5" width="97" height="43"></rect>
                    <rect id="Rectangle-Copy-7" fill="#DBDBE7" x="12" y="9" width="27" height="35"></rect>
                    <rect id="Rectangle-Copy-8" fill="#2F2F2F" x="45" y="18" width="50" height="2"></rect>
                    <rect id="Rectangle-Copy-9" fill="#2F2F2F" x="45" y="23" width="50" height="2"></rect>
                    <rect id="Rectangle" fill="#FF8002" x="55.4117647" y="29" width="30.1764706" height="9" rx="4.5"></rect>
                </g>
            </g>
        </g>
    </g>
</svg>