<svg width="230px" height="151px" viewBox="0 0 230 151" version="1.1" xmlns="http://www.w3.org/2000/svg" xmlns:xlink="http://www.w3.org/1999/xlink">
    <g id="Page-1" stroke="none" stroke-width="1" fill="none" fill-rule="evenodd">
        <g id="Large-Copy" transform="translate(-846, -2913)">
            <g id="Scroll-Box" transform="translate(846, 2913)">
                <rect id="Rectangle-Copy-18" fill="#242415" x="0" y="0" width="230" height="151" rx="3"></rect>
                <rect id="Rectangle-Copy-19" fill="#F0F0F3" x="5" y="16" width="219" height="129" rx="2"></rect>
                <circle id="Oval-Copy-3" fill="#E6E6E6" cx="13" cy="9" r="3"></circle>
                <circle id="Oval-Copy-4" fill="#E6E6E6" cx="24" cy="9" r="3"></circle>
                <circle id="Oval-Copy-5" fill="#E6E6E6" cx="35" cy="9" r="3"></circle>
                <rect id="Rectangle-Copy-20" fill="#DBDBE7" x="19" y="25" width="65" height="18"></rect>
                <rect id="Rectangle-Copy-21" fill="#DBDBE7" x="18" y="49" width="194" height="42"></rect>
                <rect id="Rectangle-Copy-22" fill="#DBDBE7" x="102" y="123" width="27" height="10"></rect>
                <rect id="Rectangle-Copy-23" fill="#DBDBE7" x="61" y="94" width="108" height="10"></rect>
                <rect id="Rectangle-Copy-24" fill="#DBDBE7" x="61" y="107" width="108" height="10"></rect>
                <rect id="Rectangle" fill="#2680B7" x="62" y="51" width="106" height="53" rx="3"></rect>
                <rect id="Rectangle" fill="#FFFFFF" x="67" y="56" width="97" height="43"></rect>
                <rect id="Rectangle-Copy-8" fill="#2F2F2F" x="90" y="69" width="50" height="2"></rect>
                <rect id="Rectangle-Copy-9" fill="#2F2F2F" x="90" y="74" width="50" height="2"></rect>
                <rect id="Rectangle" fill="#FF8002" x="100" y="80" width="30.1764706" height="9" rx="4.5"></rect>
                <rect id="Rectangle" stroke="#242415" stroke-width="2" fill="#FFFFFF" x="205" y="15" width="18" height="131"></rect>
                <rect id="Rectangle" fill="#B2B200" x="206" y="92" width="16" height="44"></rect>
            </g>
        </g>
    </g>
</svg>