<svg width="230px" height="151px" viewBox="0 0 230 151" version="1.1" xmlns="http://www.w3.org/2000/svg" xmlns:xlink="http://www.w3.org/1999/xlink">
    <g id="Page-1" stroke="none" stroke-width="1" fill="none" fill-rule="evenodd">
        <g id="Large-Copy" transform="translate(-515, -2913)">
            <g id="Smart-Bar" transform="translate(515, 2913)">
                <rect id="Rectangle-Copy-25" fill="#242415" x="0" y="0" width="230" height="151" rx="3"></rect>
                <rect id="Rectangle-Copy-26" fill="#F0F0F3" x="5" y="16" width="219" height="129" rx="2"></rect>
                <circle id="Oval-Copy-6" fill="#E6E6E6" cx="13" cy="9" r="3"></circle>
                <circle id="Oval-Copy-7" fill="#E6E6E6" cx="24" cy="9" r="3"></circle>
                <circle id="Oval-Copy-8" fill="#E6E6E6" cx="35" cy="9" r="3"></circle>
                <rect id="Rectangle-Copy-28" fill="#DBDBE7" x="18" y="26" width="97" height="108"></rect>
                <rect id="Rectangle-Copy-41" fill="#DBDBE7" x="119" y="83" width="97" height="51"></rect>
                <rect id="Rectangle-Copy-31" fill="#DBDBE7" x="119" y="26" width="97" height="6"></rect>
                <rect id="Rectangle-Copy-37" fill="#DBDBE7" x="119" y="37" width="97" height="6"></rect>
                <rect id="Rectangle-Copy-38" fill="#DBDBE7" x="119" y="48" width="97" height="6"></rect>
                <rect id="Rectangle-Copy-39" fill="#DBDBE7" x="119" y="59" width="97" height="6"></rect>
                <rect id="Rectangle-Copy-40" fill="#DBDBE7" x="119" y="70" width="97" height="6"></rect>
                <rect id="Rectangle-Copy-27" fill="#FF8002" x="5" y="16" width="219" height="17"></rect>
                <rect id="Rectangle-Copy-29" fill="#D1F48D" x="186" y="20" width="30.1764706" height="9" rx="4.5"></rect>
            </g>
        </g>
    </g>
</svg>