<svg width="230px" height="151px" viewBox="0 0 230 151" version="1.1" xmlns="http://www.w3.org/2000/svg" xmlns:xlink="http://www.w3.org/1999/xlink">
    <g id="Page-1" stroke="none" stroke-width="1" fill="none" fill-rule="evenodd">
        <g id="Large-Copy" transform="translate(-515, -2607)">
            <g id="Welcome-Mat" transform="translate(515, 2607)">
                <rect id="Rectangle-Copy-52" fill="#242415" x="0" y="0" width="230" height="151" rx="3"></rect>
                <rect id="Rectangle-Copy-53" fill="#F0F0F3" x="5" y="16" width="219" height="129" rx="2"></rect>
                <circle id="Oval-Copy-15" fill="#E6E6E6" cx="13" cy="9" r="3"></circle>
                <circle id="Oval-Copy-16" fill="#E6E6E6" cx="24" cy="9" r="3"></circle>
                <circle id="Oval-Copy-17" fill="#E6E6E6" cx="35" cy="9" r="3"></circle>
                <rect id="Rectangle-Copy-54" fill="#DBDBE7" x="18" y="26" width="97" height="108"></rect>
                <rect id="Rectangle-Copy-55" fill="#DBDBE7" x="119" y="83" width="97" height="51"></rect>
                <rect id="Rectangle-Copy-56" fill="#DBDBE7" x="119" y="26" width="97" height="6"></rect>
                <rect id="Rectangle-Copy-57" fill="#DBDBE7" x="119" y="37" width="97" height="6"></rect>
                <rect id="Rectangle-Copy-58" fill="#DBDBE7" x="119" y="48" width="97" height="6"></rect>
                <rect id="Rectangle-Copy-59" fill="#DBDBE7" x="119" y="59" width="97" height="6"></rect>
                <rect id="Rectangle-Copy-60" fill="#DBDBE7" x="119" y="70" width="97" height="6"></rect>
                <rect id="Rectangle-Copy-61" fill="#2680B7" x="11" y="23" width="206" height="113" rx="3"></rect>
                <rect id="Rectangle-Copy-62" fill="#FFFFFF" x="59" y="69" width="110.16" height="11.88"></rect>
                <rect id="Rectangle-Copy-65" fill="#FF8002" x="98" y="86" width="32.5905882" height="9.72" rx="4.86"></rect>
            </g>
        </g>
    </g>
</svg>